<svg height="512pt" viewBox="0 0 512 512" width="512pt" xmlns="http://www.w3.org/2000/svg"><path d="m486.390625 0h-68.265625c-14.140625 0-25.601562 11.460938-25.601562 25.601562v51.199219h-17.066407c-4.710937 0-8.53125 3.820313-8.53125 8.53125 0 4.714844 3.820313 8.535157 8.53125 8.535157h17.066407v102.398437c0 14.140625 11.460937 25.601563 25.601562 25.601563h68.265625c14.140625 0 25.601563-11.460938 25.601563-25.601563v-170.664063c0-14.140624-11.460938-25.601562-25.601563-25.601562zm-68.265625 17.066406h68.265625c4.714844 0 8.535156 3.820313 8.535156 8.535156v8.53125h-85.335937v-8.53125c0-4.714843 3.820312-8.535156 8.535156-8.535156zm76.800781 153.601563h-85.335937v-119.46875h85.335937zm-8.535156 34.132812h-68.265625c-4.714844 0-8.535156-3.820312-8.535156-8.535156v-8.53125h85.335937v8.53125c0 4.714844-3.820312 8.535156-8.535156 8.535156zm0 0"/><path d="m25.589844 512h281.601562c14.136719 0 25.601563-11.460938 25.601563-25.601562v-17.066407c0-.179687-.09375-.332031-.105469-.511719-.046875-.773437-.203125-1.535156-.460938-2.269531-.078124-.269531-.171874-.539062-.28125-.800781-.398437-.894531-.949218-1.710938-1.628906-2.414062l-40.191406-40.203126v-158.597656c0-9.425781-7.640625-17.070312-17.066406-17.070312h-102.402344v-17.066406c0-4.710938-3.820312-8.53125-8.53125-8.53125-4.714844 0-8.535156 3.820312-8.535156 8.53125v17.066406h-93.863282c-9.425781 0-17.070312 7.644531-17.070312 17.070312v158.597656l-40.15625 40.160157c-.691406.714843-1.25 1.546875-1.65625 2.457031-.105469.261719-.199219.53125-.28125.800781-.253906.730469-.410156 1.492188-.460938 2.261719 0 .1875-.101562.339844-.101562.519531v17.066407c0 14.136718 11.457031 25.597656 25.589844 25.601562zm290.136718-25.601562c0 4.714843-3.824218 8.535156-8.535156 8.535156h-281.601562c-4.710938 0-8.53125-3.820313-8.53125-8.535156v-8.53125h298.667968zm-42.667968-68.367188h-213.332032v-119.363281h213.332032zm0-153.496094v17.066406h-213.332032v-17.066406zm-218.335938 170.664063h223.335938l25.601562 25.601562h-274.535156zm0 0"/><path d="m452.257812 264.535156c4.714844 0 8.535157-3.824218 8.535157-8.535156v-8.535156c0-4.710938-3.820313-8.53125-8.535157-8.53125-4.710937 0-8.53125 3.820312-8.53125 8.53125v8.535156c0 4.710938 3.820313 8.535156 8.53125 8.535156zm0 0"/><path d="m366.925781 349.867188h-8.535156c-4.710937 0-8.53125 3.820312-8.53125 8.53125 0 4.714843 3.820313 8.535156 8.53125 8.535156h8.535156c4.710938 0 8.53125-3.820313 8.53125-8.535156 0-4.710938-3.820312-8.53125-8.53125-8.53125zm0 0"/><path d="m315.726562 366.933594h8.53125c4.714844 0 8.535157-3.820313 8.535157-8.535156 0-4.710938-3.820313-8.53125-8.535157-8.53125h-8.53125c-4.714843 0-8.535156 3.820312-8.535156 8.53125 0 4.714843 3.820313 8.535156 8.535156 8.535156zm0 0"/><path d="m401.058594 315.734375v34.132813c-4.714844 0-8.535156 3.820312-8.535156 8.53125 0 4.714843 3.820312 8.535156 8.535156 8.535156h2.414062c4.859375 15.425781 13.722656 29.285156 25.6875 40.167968l17.066406 17.066407c3.332032 3.328125 8.730469 3.328125 12.066407 0l17.066406-17.066407c9.121094-9.125 28.097656-28.101562 28.097656-57.234374v-33.828126c.101563-3.445312-1.863281-6.621093-4.992187-8.070312-11.996094-5.058594-24.75-8.089844-37.742188-8.96875 0-.121094.070313-.214844.070313-.332031v-8.535157c0-4.710937-3.820313-8.53125-8.535157-8.53125-4.710937 0-8.53125 3.820313-8.53125 8.53125v8.535157c0 .117187.066407.21875.066407.347656-13.015625.882813-25.792969 3.917969-37.8125 8.988281-3.003907 1.398438-4.921875 4.414063-4.921875 7.730469zm17.066406 5.808594c22.097656-7.738281 46.167969-7.738281 68.265625 0v28.324219c0 22.066406-15.027344 37.09375-23.097656 45.167968l-11.035157 11.03125-11.035156-11.03125c-8.070312-8.074218-23.097656-23.101562-23.097656-45.167968zm0 0"/><path d="m162.125 179.199219c-4.714844 0-8.535156 3.820312-8.535156 8.535156v8.53125c0 4.714844 3.820312 8.535156 8.535156 8.535156 4.710938 0 8.53125-3.820312 8.53125-8.535156v-8.53125c0-4.714844-3.820312-8.535156-8.53125-8.535156zm0 0"/><path d="m170.65625 148.597656 14.566406-14.566406c11.964844-10.878906 20.828125-24.738281 25.6875-40.164062h2.414063c4.714843 0 8.535156-3.820313 8.535156-8.535157 0-4.710937-3.820313-8.53125-8.535156-8.53125v-33.828125c.101562-3.445312-1.863281-6.621094-4.992188-8.070312-29.574219-12.425782-62.90625-12.425782-92.484375 0-3.015625 1.40625-4.9375 4.4375-4.921875 7.765625v34.132812c0 29.132813 18.976563 48.109375 28.097657 57.230469l14.566406 14.566406v5.003906c0 4.710938 3.820312 8.53125 8.535156 8.53125 4.710938 0 8.53125-3.820312 8.53125-8.53125zm-42.664062-71.796875v-28.324219c22.097656-7.738281 46.167968-7.738281 68.265624 0v28.324219c0 22.066407-15.027343 37.09375-23.097656 45.167969l-11.035156 11.03125-11.035156-11.03125c-8.070313-8.074219-23.097656-23.101562-23.097656-45.167969zm0 0"/><path d="m247.457031 76.800781c-4.710937 0-8.53125 3.820313-8.53125 8.53125 0 4.714844 3.820313 8.535157 8.53125 8.535157h8.535157c4.710937 0 8.53125-3.820313 8.53125-8.535157 0-4.710937-3.820313-8.53125-8.53125-8.53125zm0 0"/><path d="m298.65625 76.800781h-8.53125c-4.714844 0-8.535156 3.820313-8.535156 8.53125 0 4.714844 3.820312 8.535157 8.535156 8.535157h8.53125c4.714844 0 8.535156-3.820313 8.535156-8.535157 0-4.710937-3.820312-8.53125-8.535156-8.53125zm0 0"/><path d="m341.324219 93.867188c4.714843 0 8.535156-3.820313 8.535156-8.535157 0-4.710937-3.820313-8.53125-8.535156-8.53125h-8.53125c-4.714844 0-8.535157 3.820313-8.535157 8.53125 0 4.714844 3.820313 8.535157 8.535157 8.535157zm0 0"/><path d="m247.457031 384h-162.132812c-4.710938 0-8.53125 3.820312-8.53125 8.535156 0 4.710938 3.820312 8.53125 8.53125 8.53125h162.132812c4.714844 0 8.535157-3.820312 8.535157-8.53125 0-4.714844-3.820313-8.535156-8.535157-8.535156zm0 0"/><path d="m85.324219 366.933594h93.867187c4.710938 0 8.535156-3.820313 8.535156-8.535156 0-4.710938-3.824218-8.53125-8.535156-8.53125h-93.867187c-4.710938 0-8.53125 3.820312-8.53125 8.53125 0 4.714843 3.820312 8.535156 8.53125 8.535156zm0 0"/><path d="m85.324219 332.800781h93.867187c4.710938 0 8.535156-3.820312 8.535156-8.535156 0-4.710937-3.824218-8.53125-8.535156-8.53125h-93.867187c-4.710938 0-8.53125 3.820313-8.53125 8.53125 0 4.714844 3.820312 8.535156 8.53125 8.535156zm0 0"/><path d="m213.324219 366.933594h34.132812c4.714844 0 8.535157-3.820313 8.535157-8.535156v-34.132813c0-4.710937-3.820313-8.53125-8.535157-8.53125h-34.132812c-4.710938 0-8.53125 3.820313-8.53125 8.53125v34.132813c0 4.714843 3.820312 8.535156 8.53125 8.535156zm8.535156-34.132813h17.066406v17.066407h-17.066406zm0 0"/><path d="m435.191406 85.332031h34.132813c4.714843 0 8.535156-3.820312 8.535156-8.53125 0-4.714843-3.820313-8.535156-8.535156-8.535156h-34.132813c-4.710937 0-8.535156 3.820313-8.535156 8.535156 0 4.710938 3.824219 8.53125 8.535156 8.53125zm0 0"/><path d="m435.191406 119.464844h34.132813c4.714843 0 8.535156-3.820313 8.535156-8.53125 0-4.714844-3.820313-8.535156-8.535156-8.535156h-34.132813c-4.710937 0-8.535156 3.820312-8.535156 8.535156 0 4.710937 3.824219 8.53125 8.535156 8.53125zm0 0"/><path d="m435.191406 153.601562h34.132813c4.714843 0 8.535156-3.820312 8.535156-8.535156 0-4.710937-3.820313-8.53125-8.535156-8.53125h-34.132813c-4.710937 0-8.535156 3.820313-8.535156 8.53125 0 4.714844 3.824219 8.535156 8.535156 8.535156zm0 0"/></svg>